# xmcd
#
# Track frame offsets: 
#        150
#        10830
#        19574
#        28950
#        36908
#        47509
#        57441
#        64706
#        74271
#        81992
#        90955
#        98711
#        106634
#        117839
#        127158
#        134973
#        142231
#        149439
#        160611
#        169698
#        179267
#        189494
#        198373
#        207386
#        218138
#        228544
#        237908
#        245317
#        256153
#        265476
#
# Disc length: 3678 seconds
#
# Revision: 0
# Processed by: cddbd v1.5.2PL0 Copyright (c) Steve Scherf et al.
# Submitted via: ExactAudioCopy v1.3
#
DISCID=b40e5c1e
DTITLE=Various Artist - Vintage Bluegrass Power Picks
DYEAR=2014
DGENRE=Bluegrass
TTITLE0=Earl Taylor and Jim McCall with The Stoney Mountain Boys - Lones
TTITLE0=ome Road Blues
TTITLE1=Red White and His Dixie Bluegrass Band - Tragic Romance
TTITLE2=Don Reno and Bill Harrell with The Tennessee Cut-Ups - Poor Elle
TTITLE2=n Smith
TTITLE3=Ernie and Mack with The Bluegrass Cut-Ups - Cindy
TTITLE4=Frosty Mountain Boys with Raymond Fairchild - I Ain't Gonna Wo
TTITLE4=rk Here Tomorrow
TTITLE5=Log Cabin Boys - Train 45
TTITLE6=Earl Taylor and Jim McCall with The Stoney Mountain Boys - Littl
TTITLE6=e Maggie
TTITLE7=Red White and His Dixie Bluegrass Band - I Wonder How the Old Fo
TTITLE7=lks Are at Home
TTITLE8=Ernie and Mack with The Blue Grass Cut-Ups - East Virginia Blues
TTITLE9=Don Reno and Bill Harrell with The Tennessee Cut-Ups - Hot Corn 
TTITLE9=Cold Corn
TTITLE10=Roy Ross and The Blue Ridge Mountain Boys - All the Good Times 
TTITLE10=Are Past and Gone
TTITLE11=Blue Ridge Mountaineers - Earl's Breakdown
TTITLE12=Earl Taylor and Jim McCall with The Stoney Mountain Boys - Wond
TTITLE12=ering Boy
TTITLE13=Ernie and Mack with The Blue Grass Cut-Ups - The Weeping Willow
TTITLE14=Jim Greer and The Mac-O-Chee Valley Folks - Way Down Town
TTITLE15=Red Smiley and The Blue Grass Cut-Ups - 900 Miles
TTITLE16=Frosty Mountain Boys with Raymond Fairchild - Rabbit In the L
TTITLE16=og
TTITLE17=Log Cabin Boys - Patty On the Turnpike
TTITLE18=Earl Taylor and Jim McCall with The Stoney Mountain Boys - Worr
TTITLE18=ied Man Blues
TTITLE19=Ernie and Mack with The Blue Grass Cut-Ups - Careless Love
TTITLE20=Jim Greer and The Mac-O-Chee Valley Folks - Handsome Molly
TTITLE21=Red White and His Dixie Blue Grass Band - Are You Missing Me
TTITLE22=Don Reno and Bill Harrell with The Tennessee Cut-Ups - Nobody's
TTITLE22=Business
TTITLE23=Roy Ross and The Blue Ridge Mountain Boys - Blue Ridge Breakdow
TTITLE23=n
TTITLE24=Earl Taylor and Jim McCall with The Stoney Mountain Boys - Gath
TTITLE24=ering Flower From the Hillside
TTITLE25=Ernie and Mack with The Blue Grass Cut-Ups - Broken Vows
TTITLE26=Blue Ridge Mountaineers - Down the Road
TTITLE27=Red Smiley and The Blue Grass Cut-Ups - Banks of the Ohio
TTITLE28=Don Reno and Bill Harrell with The Tennessee Cut-Ups - Long Jou
TTITLE28=rney Home
TTITLE29=Mac Martin and The Dixie Travelers - Mississippi Sawyer
EXTD=
EXTT0=
EXTT1=
EXTT2=
EXTT3=
EXTT4=
EXTT5=
EXTT6=
EXTT7=
EXTT8=
EXTT9=
EXTT10=
EXTT11=
EXTT12=
EXTT13=
EXTT14=
EXTT15=
EXTT16=
EXTT17=
EXTT18=
EXTT19=
EXTT20=
EXTT21=
EXTT22=
EXTT23=
EXTT24=
EXTT25=
EXTT26=
EXTT27=
EXTT28=
EXTT29=
PLAYORDER=
